<mxfile host="app.diagrams.net" modified="2022-03-30T00:58:24.312Z" agent="5.0 (Windows NT 10.0; WOW64) AppleWebKit/537.36 (KHTML, like Gecko) Chrome/86.0.4240.198 Safari/537.36" etag="2YqSnAbCeMBXDQksBRLB" version="17.1.3" type="github">
  <diagram id="OggxRgCjbojQH3d6BGC1" name="Page-1">
    <mxGraphModel dx="1320" dy="828" grid="1" gridSize="10" guides="1" tooltips="1" connect="1" arrows="1" fold="1" page="1" pageScale="1" pageWidth="827" pageHeight="1169" math="0" shadow="0">
      <root>
        <mxCell id="0" />
        <mxCell id="1" parent="0" />
        <mxCell id="7LSl9APbEitOxtblByLi-4" value="" style="edgeStyle=orthogonalEdgeStyle;rounded=0;orthogonalLoop=1;jettySize=auto;html=1;" edge="1" parent="1" source="7LSl9APbEitOxtblByLi-1" target="7LSl9APbEitOxtblByLi-3">
          <mxGeometry relative="1" as="geometry" />
        </mxCell>
        <mxCell id="7LSl9APbEitOxtblByLi-1" value="任务" style="rounded=0;whiteSpace=wrap;html=1;" vertex="1" parent="1">
          <mxGeometry x="100" y="90" width="120" height="60" as="geometry" />
        </mxCell>
        <mxCell id="7LSl9APbEitOxtblByLi-2" value="问题" style="rounded=0;whiteSpace=wrap;html=1;" vertex="1" parent="1">
          <mxGeometry x="294" y="90" width="120" height="60" as="geometry" />
        </mxCell>
        <mxCell id="7LSl9APbEitOxtblByLi-3" value="完成素材网 用户&lt;br&gt;收益功能&lt;br&gt;的用户登录衰减&lt;br&gt;连续领取衰减" style="rounded=0;whiteSpace=wrap;html=1;" vertex="1" parent="1">
          <mxGeometry x="100" y="230" width="120" height="60" as="geometry" />
        </mxCell>
        <mxCell id="7LSl9APbEitOxtblByLi-7" value="" style="edgeStyle=orthogonalEdgeStyle;rounded=0;orthogonalLoop=1;jettySize=auto;html=1;" edge="1" parent="1" source="7LSl9APbEitOxtblByLi-5" target="7LSl9APbEitOxtblByLi-6">
          <mxGeometry relative="1" as="geometry" />
        </mxCell>
        <mxCell id="7LSl9APbEitOxtblByLi-5" value="总结" style="rounded=0;whiteSpace=wrap;html=1;" vertex="1" parent="1">
          <mxGeometry x="480" y="90" width="120" height="60" as="geometry" />
        </mxCell>
        <mxCell id="7LSl9APbEitOxtblByLi-6" value="PHP&lt;br&gt;??只判断为null 其他类型不判断" style="rounded=0;whiteSpace=wrap;html=1;" vertex="1" parent="1">
          <mxGeometry x="480" y="230" width="120" height="60" as="geometry" />
        </mxCell>
      </root>
    </mxGraphModel>
  </diagram>
</mxfile>
